<?xml version="1.0" standalone="no"?>
<!DOCTYPE svg PUBLIC "-//W3C//DTD SVG 1.1//EN" "http://www.w3.org/Graphics/SVG/1.1/DTD/svg11.dtd">
<svg xmlns="http://www.w3.org/2000/svg">
<metadata>Copyright (C) 2019 by original authors @ fontello.com</metadata>
<defs>
<font id="fontello" horiz-adv-x="1000" >
<font-face font-family="fontello" font-weight="400" font-stretch="normal" units-per-em="1000" ascent="850" descent="-150" />
<missing-glyph horiz-adv-x="1000" />
<glyph glyph-name="search" unicode="&#xe800;" d="M643 386q0 103-73 176t-177 74-177-74-73-176 73-177 177-73 177 73 73 177z m286-465q0-29-22-50t-50-21q-30 0-50 21l-191 191q-100-69-223-69-80 0-153 31t-125 84-84 125-31 153 31 152 84 126 125 84 153 31 153-31 125-84 84-126 31-152q0-123-69-223l191-191q21-21 21-51z" horiz-adv-x="928.6" />

<glyph glyph-name="agenda" unicode="&#xe801;" d="M571 338l0 0c-25 0-46-21-46-46 0-25 21-46 46-46l0 0c25 0 46 21 46 46 0 25-21 46-46 46z m-142 45c25 0 46 21 46 46 0 25-21 46-46 46-25 0-46-21-46-46 0-25 21-46 46-46z m142 96l0 0c-25 0-46-21-46-46 0-25 21-45 46-45l0 0c25 0 46 20 46 45 0 25-21 46-46 46z m46 234h-234v-96h234v96z m96-330c25 0 45 21 45 46 0 25-20 46-45 46-25 0-46-21-46-46-4-25 16-46 46-46z m0-141c25 0 45 21 45 46 0 25-20 45-45 45-25 0-46-20-46-45-4-25 16-46 46-46z m-284 0c25 0 46 21 46 46 0 25-21 45-46 45-25 0-46-20-46-45 0-25 21-46 46-46z m-141-138c25 0 45 21 45 46 0 25-20 46-45 46-25 0-46-21-46-46 0-25 21-46 46-46z m562 609h-46v-96h46v-609h-700v609h46v96h-46c-50 0-96-42-96-96v-609c0-50 42-96 96-96h704c50 0 96 42 96 96v609c-4 54-46 96-100 96z m-562-471c25 0 45 21 45 46 0 25-20 45-45 45-25 0-46-20-46-45 0-25 21-46 46-46z m0 141c25 0 45 21 45 46 0 25-20 46-45 46-25 0-46-21-46-46 0-25 21-46 46-46z m141-279c25 0 46 21 46 46 0 25-21 46-46 46-25 0-46-21-46-46 0-25 21-46 46-46z m-141 513c25 0 45 21 45 46v95c0 25-20 46-45 46-25 0-46-21-46-46v-95c0-25 21-46 46-46z m425 0c25 0 45 21 45 46v95c0 25-20 46-45 46-25 0-46-21-46-46v-95c-4-25 16-46 46-46z" horiz-adv-x="1000" />

<glyph glyph-name="agendarhora" unicode="&#xe802;" d="M571 338l0 0c-25 0-46-21-46-46s21-46 46-46l0 0c25 0 46 21 46 46s-21 46-46 46z m-142 45c25 0 46 21 46 46s-21 46-46 46-46-21-46-46 21-46 46-46z m142 96l0 0c-25 0-46-21-46-46s21-45 46-45l0 0c25 0 46 20 46 45s-21 46-46 46z m46 234h-234v-96h234c0 0 0 96 0 96z m96-330c25 0 45 21 45 46s-20 46-45 46-46-21-46-46c-4-25 16-46 46-46z m0-141c25 0 45 21 45 46s-20 45-45 45-46-20-46-45c-4-25 16-46 46-46z m-284 0c25 0 46 21 46 46s-21 45-46 45-46-20-46-45 21-46 46-46z m-141-138c25 0 45 21 45 46s-20 46-45 46-46-21-46-46 21-46 46-46z m312-96m250 250m100 0v359c-4 54-46 96-100 96h-46v-96h46v-359m100 0m-350-346m0 96h-450v609h46v96h-46c-50 0-96-42-96-96v-609c0-50 42-96 96-96h450m-312 330c25 0 45 21 45 46s-20 45-45 45-46-20-46-45 21-46 46-46z m0 141c25 0 45 21 45 46s-20 46-45 46-46-21-46-46 21-46 46-46z m141-279c25 0 46 21 46 46s-21 46-46 46-46-21-46-46 21-46 46-46z m-141 513c25 0 45 21 45 46v95c0 25-20 46-45 46s-46-21-46-46v-95c0-25 21-46 46-46z m425 0c25 0 45 21 45 46v95c0 25-20 46-45 46s-46-21-46-46v-95c-4-25 16-46 46-46z m104-384c-104 0-192-87-192-191s88-192 192-192 191 87 191 192-83 191-191 191z m0-321c-71 0-129 59-129 130s58 129 129 129 129-58 129-129-58-130-129-130z m29 138h-13v33c0 17-12 34-33 34-17 0-33-13-33-34v-66c0-17 12-34 33-34h46c17 0 33 13 33 34 0 21-16 33-33 33z" horiz-adv-x="1000" />

<glyph glyph-name="alerta" unicode="&#xe803;" d="M958 67l-379 654c-16 29-46 46-79 46s-62-17-79-46l-379-654c-17-29-17-63 0-92s46-46 79-46h758c34 0 63 17 79 46 17 25 17 63 0 92z m-458-34c-33 0-58 25-58 59 0 33 25 58 58 58s58-25 58-58c0-34-25-59-58-59z m63 259c0-34-30-63-63-63-33 0-62 29-62 63v275c0 16 12 29 29 29h62c17 0 29-13 29-29l5-275 0 0z" horiz-adv-x="1000" />

<glyph glyph-name="ayuda" unicode="&#xe804;" d="M504 850c-275 0-496-221-496-496 0-275 221-496 496-496 275 0 496 221 496 496 0 275-221 496-496 496z m0-783c-29 0-50 21-50 50 0 29 21 50 50 50 29 0 50-21 50-50 0-29-21-50-50-50z m38 229v-63c0-20-17-37-38-37s-37 17-37 37v96c0 21 16 38 37 38 46 0 79 33 79 79 0 46-33 79-79 79-46 0-79-37-79-79 0-21-17-38-37-38s-38 17-38 38c0 87 67 154 154 154 84 0 154-67 154-154 0-71-50-133-116-150z" horiz-adv-x="1000" />

<glyph glyph-name="beneficios" unicode="&#xe805;" d="M388 529c-84 0-150-66-150-150s66-154 150-154 150 67 150 150-67 154-150 154z m0-341c-100 0-305-50-305-150v-113h609v113c0 100-204 150-304 150z m254 262c0 0 0 4 0 0-4 4-9 4-4 8l16 109-79 79c0 0-4 4 0 4 0 4 4 4 4 4l109 17 50 100c0 0 4 4 4 4l0 0c4 0 4 0 4-4l50-100 108-17c4 0 4 0 4-4 0-4 0-4 0-4l-75-79 17-109c0-4 0-4-4-4 0 0-4 0-8 0l-100 50-96-54c4 4 4 0 0 0z" horiz-adv-x="1000" />

<glyph glyph-name="boot" unicode="&#xe806;" d="M183 367c0 8 0 16 0 25h-33c-29 0-54-25-54-54v-100c0-30 25-55 54-55h33v184z m667 25h-37c0-9 0-17 0-25v-184h33c29 0 54 25 54 55v100c0 29-21 54-50 54z m-75-334v125 180c0 8 0 16 0 25-12 129-112 233-242 245v25 21 9c21 12 34 33 34 58 0 37-29 67-67 67-37 0-67-30-67-67 0-25 13-46 34-58v-13-21-21c-129-12-229-116-242-241 0-9 0-17 0-25v-184-125h150v59c0 16 13 29 29 29h188c16 0 29-13 29-29v-59h154l0 0z m-408 167c-42 0-75 33-75 75s33 75 75 75 75-33 75-75-34-75-75-75z m200 75c0 42 33 75 75 75s75-33 75-75-34-75-75-75-75 33-75 75z m250-279l0 0h-192-250-192l0 0c-12 0-25-13-25-25v-88c0-12 13-25 25-25h638c12 0 25 13 25 25v88c0 12-13 25-29 25z" horiz-adv-x="1000" />

<glyph glyph-name="callcenter" unicode="&#xe807;" d="M429 304c0-25-21-46-46-46-25 0-45 21-45 46 0 25 20 46 45 46 25 0 46-17 46-46z m188 46c-25 0-46-21-46-46 0-25 21-46 46-46s46 21 46 46c0 29-21 46-46 46z m333-17v-87c0-46-37-79-79-79h-58c-59-159-205-255-313-255s-254 96-312 255h-59c-46 0-79 37-79 79v87c0 30 17 59 42 71 0 125 37 221 108 288 71 66 171 100 300 100s229-34 300-100c71-67 108-163 108-288 25-16 42-41 42-71z m-171-29c0 21 0 42-4 59-33 33-100 58-179 66 12-12 21-29 25-50-50 38-146 29-221 117-4 8-4 12-8 17 0 0 0 0 0 0l0 0c-13 16-17 29-17 16-4-100-75-179-154-191 0-13 0-21 0-34 0-41 8-79 17-116 45-55 116-71 183-71 12 21 37 33 71 33 41 0 79-25 79-54 0-29-33-54-79-54-34 0-63 12-71 33-46 4-96 8-142 33 63-91 159-141 221-141 96 0 279 116 279 337z m79 109c-4 216-129 333-358 333s-354-117-358-333h29c12 75 33 133 71 179 58 75 146 108 258 108s200-37 258-112c38-46 59-109 71-180l29 5 0 0z" horiz-adv-x="1000" />

<glyph glyph-name="cargar" unicode="&#xe808;" d="M938 179c-9 9-21 17-38 17h-233c-9-21-21-38-38-50-16-13-37-21-58-21h-142c-21 0-41 8-58 21-17 12-29 29-38 50h-237c-13 0-25-4-38-17-8-8-16-21-16-37v-175c0-13 4-25 16-38 9-8 21-17 38-17h804c13 0 25 5 38 17 8 8 16 21 16 38v175c0 12-4 25-16 37z m-205-187c-8-9-16-9-25-9s-16 4-25 9c-8 8-8 16-8 25 0 8 4 16 8 25 9 8 17 8 25 8s17-4 25-8c9-9 9-17 9-25 4-9 0-17-9-25z m142 0c-8-9-17-9-25-9-8 0-17 4-25 9-8 8-8 16-8 25 0 8 4 16 8 25 8 8 17 8 25 8 8 0 17-4 25-8 8-9 8-17 8-25 0-9 0-17-8-25z m-621 479h142v-246c0-8 4-17 8-25 9-8 17-8 25-8h142c8 0 17 4 25 8 8 8 8 17 8 25v246h142c17 0 25 8 33 21 4 12 4 25-8 37l-246 246c-8 8-17 8-25 8-8 0-17-4-25-8l-246-242c-8-12-12-25-8-37 8-17 21-25 33-25z" horiz-adv-x="1000" />

<glyph glyph-name="cerrar" unicode="&#xe809;" d="M500 767c-229 0-417-188-417-417s188-417 417-417 417 188 417 417-188 417-417 417z m208-567l-58-58-150 150-150-150-58 58 150 150-150 150 58 58 150-150 150 150 58-58-150-150 150-150z" horiz-adv-x="1000" />

<glyph glyph-name="certificado_1" unicode="&#xe80a;" d="M621 758h-442v-816h638v616l-196 200z m-292-150h138c8 0 12-8 12-25 0-16-4-25-12-25h-138c-8 0-12 9-12 25s4 25 12 25z m342-479h-342c-8 0-12 9-12 25 0 17 4 25 12 25h342c8 0 12-8 12-25 0-8-4-25-12-25z m0 142h-342c-8 0-12 8-12 21s4 25 12 25h342c8 0 12-9 12-21s-8-25-12-25z m0 133h-342c-8 0-12 9-12 25 0 17 4 25 12 25h342c8 0 12-8 12-25 0-16-8-25-12-25z m-71 138v187l192-187h-192z" horiz-adv-x="1000" />

<glyph glyph-name="claveunica" unicode="&#xe80b;" d="M475 258c13-16 38-16 50-4 17 13 17 38 4 50-12 17-37 17-50 4-16-12-21-37-4-50z m179 417c-16 8-37 0-41-17-9-16 0-37 16-41 134-54 217-179 217-321 0-192-154-346-346-346s-346 154-346 346c0 137 84 262 209 317 16 8 25 25 16 45s-21 21-37 17c-154-62-250-212-250-379 0-225 183-413 412-413s413 184 413 413c-4 167-104 317-263 379z m-362-396c0-116 96-212 212-212s213 96 213 212c0 104-79 196-179 209v262h87c17 0 33 17 33 33s-16 34-33 34h-125c-17 0-33-17-33-34v-295c-100-17-175-105-175-209z m354 0c0-79-67-146-146-146s-146 67-146 146c0 79 67 146 146 146s146-67 146-146z" horiz-adv-x="1000" />

<glyph glyph-name="contraste" unicode="&#xe80c;" d="M500 846c-275 0-496-221-496-496 0-275 221-496 496-496 275 0 496 221 496 496 0 275-221 496-496 496z m29-934v876c225-17 409-200 409-438 0-233-184-421-409-438z" horiz-adv-x="1000" />

<glyph glyph-name="descargar" unicode="&#xe80d;" d="M946 192c-8 8-25 16-38 16h-258l-75-75c-21-20-46-33-75-33-29 0-54 8-75 29l-75 75h-258c-17 0-29-4-38-16-12-5-16-17-16-34v-179c0-17 4-29 16-38 9-8 25-16 38-16h821c16 0 29 4 37 16 8 9 17 25 17 38v179c-4 17-9 29-21 38z m-208-188c-9-8-17-12-25-12s-17 4-25 12c-9 9-13 17-13 25 0 9 4 17 13 25 8 9 16 13 25 13s16-4 25-13c8-8 12-16 12-25 0-8-4-16-12-25z m145 0c-8-8-16-12-25-12-8 0-16 4-25 12-8 9-12 17-12 25 0 9 4 17 12 25 9 9 17 13 25 13 9 0 17-4 25-13 9-8 13-16 13-25-4-8-8-16-13-25z m-408 179c8-8 17-12 25-12 8 0 17 4 25 12l250 250c13 13 13 25 8 38-8 12-16 21-33 21h-142v250c0 8-4 16-12 25-8 8-17 12-25 12h-142c-8 0-16-4-25-12-8-9-12-17-12-25v-250h-142c-17 0-25-9-33-21-4-17-4-29 8-38l250-250z" horiz-adv-x="1000" />

<glyph glyph-name="editar" unicode="&#xe80e;" d="M825 346v-371h-650v563h42v91h-42c-50 0-92-41-92-91v-563c0-46 38-88 88-88h654c46 0 88 38 88 88v371h-88z m63 283l-25-29-192 154 29 29c29 34 79 38 113 13l62-50c33-29 42-79 13-117z m-363-379c-8-8-4-25 4-29 9-8 25-4 29 4l284 346-34 29-283-350z m-158 129c-9-8-4-25 4-29 8-8 25-4 29 4l283 346-29 29-287-350z m346 296l-284-346c-16-16-12-41 9-58 16-17 41-13 58 8l283 346-66 50z m-213-483c-12 8-17 21-21 29-4 0-8-4-12-4-25-4-42 4-59 21-16 16-29 33-29 54 0 4 0 8 0 12-12 0-29 4-33 13 0 0 0 4-4 4l-29-196 187 67 0 0z" horiz-adv-x="1000" />

<glyph glyph-name="facebook" unicode="&#xe80f;" d="M946 850h-892c-29 0-54-25-54-54v-888c0-33 25-58 54-58h479v388h-129v150h129v112c0 129 80 200 196 200 54 0 104-4 117-4v-138l-79 0c-63 0-75-29-75-75v-95h150l-21-150h-129v-388h254c29 0 54 25 54 54v892c0 29-25 54-54 54z" horiz-adv-x="1000" />

<glyph glyph-name="filtro" unicode="&#xe810;" d="M900 779h-767c-12 0-25-8-33-21-4-12-4-25 4-37l279-396c0 0 0 0 0 0 9-12 17-29 17-46v-321c0-8 4-16 8-25 9-8 17-12 25-12 5 0 9 0 13 4l158 58c13 4 25 17 25 34v262c0 17 4 34 17 46 0 0 0 0 0 0l279 396c8 12 8 25 4 37-4 13-16 21-29 21z" horiz-adv-x="1000" />

<glyph glyph-name="hablar" unicode="&#xe811;" d="M867 767h-713c-50 0-87-34-87-75v-679l179 150h625c50 0 87 33 87 75v454c0 41-41 75-91 75z m-800-767h-4c-5 0-5 4-5 8v680c0 45 46 87 100 87h713c54 0 100-37 100-87v-455c0-45-46-87-100-87h-625l-175-150c0 4-4 4-4 4z m87 758c-41 0-79-29-79-66v-659l163 138c0 0 4 4 8 4h625c42 0 79 29 79 67v450c0 37-33 66-79 66 0 0-717 0-717 0z m475-237h-396c-8 0-12 12-12 29 0 17 4 29 12 29h396c9 0 13-12 13-29 4-17 0-29-13-29z m192-158h-579c-13 0-21 12-21 29s8 29 21 29h579c12 0 21-13 21-29s-9-29-21-29z" horiz-adv-x="1000" />

<glyph glyph-name="img" unicode="&#xe812;" d="M875 58v584c0 46-37 83-83 83h-584c-45 0-83-37-83-83v-584c0-45 38-83 83-83h584c46 0 83 38 83 83z m-521 230l104-125 146 187 188-250h-584l146 188z" horiz-adv-x="1000" />

<glyph glyph-name="info" unicode="&#xe813;" d="M500 850c-275 0-500-225-500-500s225-500 500-500 500 225 500 500-225 500-500 500z m0-212c-33 0-62-30-62-63 0-29 29-58 62-58 33 0 63 29 63 62 0 34-30 59-63 59z m0-213c-25 0-46-21-46-46v-271c0-25 21-45 46-45s46 20 46 45v271c0 25-21 46-46 46z" horiz-adv-x="1000" />

<glyph glyph-name="like" unicode="&#xe814;" d="M42-25h166v500h-166v-500z m916 458c0 46-37 84-83 84h-262l37 191v13c0 17-8 33-17 46l-45 41-271-275c-17-12-25-33-25-58v-417c0-45 37-83 83-83h375c33 0 63 21 75 50l125 296c8 8 8 17 8 29v83z" horiz-adv-x="1000" />

<glyph glyph-name="link" unicode="&#xe815;" d="M931 781c-93 93-242 93-335 0l-167-167c-14-15-14-37 0-51 15-15 37-15 51 0l167 167c31 31 73 47 117 47 43 0 85-16 116-47s47-73 47-116c0-44-16-86-47-117l-218-218c-64-63-167-63-231 0-15 15-36 15-51 0s-14-36 0-51c46-45 107-69 167-69s122 24 168 69l218 218c43 44 69 104 69 168-2 63-27 123-71 167z m-438-669l-142-142c-29-29-71-47-115-47-43 0-85 16-116 47-64 64-64 167 0 231l206 205c30 31 72 48 116 48 44 0 85-17 116-48 15-14 37-14 51 0s15 37 0 51c-93 93-242 93-334 0l-206-203c-43-44-69-104-69-168 0-63 24-122 69-167 44-44 104-69 167-69 64 0 122 24 168 69l142 142c14 15 14 36 0 51s-39 14-53 0z" horiz-adv-x="1000" />

<glyph glyph-name="login" unicode="&#xe816;" d="M500 654c-83 0-150-66-150-150s67-154 150-154 150 67 150 150-67 154-150 154z m0-341c-100 0-304-50-304-150v-113h608v113c0 100-204 150-304 150z" horiz-adv-x="1000" />

<glyph glyph-name="lupa" unicode="&#xe817;" d="M646 267h-33l-13 12c42 46 67 109 67 175 0 150-121 271-271 271s-271-121-271-271 121-271 271-271c67 0 129 25 175 67l12-12v-34l209-208 62 62-208 209z m-250 0c-104 0-188 83-188 187s84 188 188 188 187-84 187-188-83-187-187-187z" horiz-adv-x="1000" />

<glyph glyph-name="mas" unicode="&#xe818;" d="M700 604h-79l-254-583h112l46 117h267l46-117h112l-250 583z m-142-371l100 263 100-263h-200z m-320 380v-146h141v-38h-141v-146h-42v146h-146v38h142v146h46z" horiz-adv-x="1000" />

<glyph glyph-name="menos" unicode="&#xe819;" d="M667 588h-84l-262-609h117l50 121h275l50-121h116l-262 609z m-150-388l108 275 104-275h-212z m-421 188v58h179v-58c0 0-179 0-179 0z" horiz-adv-x="1000" />

<glyph glyph-name="menu" unicode="&#xe81a;" d="M125 100h750v83h-750v-83z m0 208h750v84h-750v-84z m0 292v-83h750v83h-750z" horiz-adv-x="1000" />

<glyph glyph-name="mess" unicode="&#xe81b;" d="M500 771c-233 0-421-175-421-392 0-125 63-233 159-304v-150l145 79c38-12 80-17 121-17 234 0 421 176 421 392s-192 392-425 392z m54-558l-137 150-267-150 292 312 137-150 267 150-292-312z" horiz-adv-x="1000" />

<glyph glyph-name="no-like" unicode="&#xe81c;" d="M958 725h-166v-500h166v500z m-916-458c0-46 37-84 83-84h263l-38-191v-13c0-17 8-33 17-46l46-41 275 275c12 16 20 33 20 58v417c0 46-37 83-83 83h-375c-33 0-62-21-75-50l-125-296c-8-8-8-16-8-29v-83z" horiz-adv-x="1000" />

<glyph glyph-name="notificacion" unicode="&#xe81d;" d="M500 850c-275 0-500-225-500-500s225-500 500-500 500 225 500 500-225 500-500 500z m0-812c-58 0-104 45-104 104h200c8-59-38-104-96-104z m221 166l0 0 0 0c0-25-21-25-42-25h-354c-25 0-42 0-42 25v4c0 17 9 34 25 38l13 121c0 87 62 158 146 179v46c0 21 16 37 37 37s38-16 38-37v-46c83-17 146-92 146-179l12-121c8-4 21-21 21-42l0 0z" horiz-adv-x="1000" />

<glyph glyph-name="pause" unicode="&#xe81e;" d="M500 767c-229 0-417-188-417-417s188-417 417-417 417 188 417 417-188 417-417 417z m-42-584h-83v334h83v-334z m167 0h-83v334h83v-334z" horiz-adv-x="1000" />

<glyph glyph-name="play" unicode="&#xe81f;" d="M333 642v-584l459 292-459 292z" horiz-adv-x="1000" />

<glyph glyph-name="print" unicode="&#xe820;" d="M279 83v-166h442v166 113h-442v-113z m59 55h333v-55h-333v55z m0-113h333v-54h-333v54z m491 558h-112v167h-442v-167h-108c-54 0-113-54-113-112v-279c0-54 54-113 113-113h54v113 54h554v-54-113h54c54 0 113 54 113 113v279c0 54-50 112-113 112z m-162 63v-17-54h-334v54 17 62h334v-62z" horiz-adv-x="1000" />

<glyph glyph-name="sound" unicode="&#xe821;" d="M125 475v-250h167l208-208v666l-208-208h-167z m563-125c0 75-42 138-105 167v-334c63 30 105 92 105 167z m-105 367v-88c121-37 209-146 209-279s-88-246-209-279v-88c167 38 292 188 292 367s-125 329-292 367z" horiz-adv-x="1000" />

<glyph glyph-name="sucursales" unicode="&#xe822;" d="M833 683h-666v-83h666v83z m42-416v83l-42 208h-666l-42-208v-83h42v-250h416v250h167v-250h83v250h42z m-375-167h-250v167h250v-167z" horiz-adv-x="1000" />

<glyph glyph-name="telefono" unicode="&#xe823;" d="M563 54c-42 21-80 46-109 79-8 9-25 13-37 9l-109-38c-70 96-108 213-112 329l108 38c13 4 21 17 25 29 4 42 21 88 42 129 8 17 0 42-17 50l-121 59c-16 8-41 0-50-17-154-313-29-696 288-850 17-9 42 0 50 16l58 117c9 17 0 42-16 50z m-17 309l58-63c150 142 159 379 17 529l-63-58c109-113 105-300-12-408z m-117 120l59-62c83 79 87 212 8 296l-63-59c50-50 50-125-4-175z" horiz-adv-x="1000" />

<glyph glyph-name="trash" unicode="&#xe824;" d="M275-17c0 0 13-58 79-58h296c67 0 79 58 79 58l59 563h-571l58-563z m338 480c0 16 12 29 29 29 16 0 29-13 29-29l-29-425c0-17-13-30-29-30-17 0-30 13-30 30l30 425z m-142 0c0 16 12 29 29 29 17 0 29-13 29-29v-425c0-17-12-30-29-30s-29 13-29 30c0 0 0 425 0 425z m-113 29c17 0 30-13 30-29l29-425c0-17-13-30-29-30-17 0-30 13-30 30l-29 425c0 16 13 29 29 29z m409 171h-125v54c0 41-13 58-59 58h-166c-42 0-59-21-59-58v-59h-125c-25 5-45-16-45-41 0-25 20-42 45-42h534c25 0 46 21 46 42 0 25-21 46-46 46z m-184 0h-166l0 58h166l0-58 0 0z" horiz-adv-x="1000" />

<glyph glyph-name="twitter" unicode="&#xe825;" d="M0 850v-1000h1000v1000h-1000z m775-358c0-4 0-13 0-17 0-187-142-404-404-404-79 0-154 25-217 62 13 0 21 0 34 0 66 0 129 21 175 63-63 0-117 42-134 100 9 0 17-4 25-4 13 0 25 0 38 4-67 12-113 71-113 137 0 0 0 0 0 0 21-12 42-16 63-16-34 25-59 66-59 116 0 25 9 50 21 71 71-87 175-141 292-150-4 9-4 21-4 34 0 79 62 141 141 141 42 0 80-16 105-46 33 9 62 17 91 34-12-34-33-63-62-79 29 4 54 12 83 20-21-20-46-45-75-66z" horiz-adv-x="1000" />

<glyph glyph-name="ver" unicode="&#xe826;" d="M996 375c0 0 0 4 0 0-46 96-113 171-200 229-88 59-192 88-296 88s-208-29-296-88c-87-54-154-133-200-225-4-8-4-21 0-29 46-92 113-171 200-225 88-58 192-87 296-87 104 0 208 29 296 87 87 54 154 133 200 225 4 8 4 17 0 25z m-496-271c-179 0-346 100-425 259 83 158 250 258 425 258 179 0 346-100 425-258-79-159-246-259-425-259z m0 413c-83 0-154-67-154-154s67-155 154-155 154 67 154 155-71 154-154 154z" horiz-adv-x="1000" />

<glyph glyph-name="youtube" unicode="&#xe827;" d="M908 600c-25 42-50 50-104 54-54 4-187 4-304 4-117 0-254 0-304-4-54-4-83-12-104-54-25-42-38-117-38-250 0 0 0 0 0 0 0 0 0 0 0 0v0c0-129 13-204 38-250 25-42 50-50 104-54 54-4 187-4 304-4 117 0 250 0 304 4 54 4 79 12 104 54 25 42 38 117 38 250 0 0 0 0 0 0 0 0 0 0 0 0 4 129-13 204-38 250z m-520-417v334l279-167-279-167z" horiz-adv-x="1000" />

<glyph glyph-name="instagram" unicode="&#xe828;" d="M779 792h-558c-88 0-163-71-163-163v-558c0-88 71-163 163-163h558c88 0 163 71 163 163v558c0 88-75 163-163 163z m-279-734c-158 0-292 130-292 292 0 158 130 292 292 292 158 0 292-129 292-292 0-158-134-292-292-292z m300 521c-37 0-67 29-67 67s30 67 67 67c38 0 67-30 67-67 0-33-29-67-67-67z m-300-62c-92 0-167-75-167-167 0-92 75-167 167-167 92 0 167 75 167 167 0 92-75 167-167 167z" horiz-adv-x="1000" />

<glyph glyph-name="mail-alt" unicode="&#xf0e0;" d="M1000 454v-443q0-37-26-63t-63-27h-822q-36 0-63 27t-26 63v443q25-27 56-49 202-137 278-192 32-24 51-37t53-27 61-13h2q28 0 61 13t53 27 51 37q95 68 278 192 32 22 56 49z m0 164q0-44-27-84t-68-69q-210-146-262-181-5-4-23-17t-30-22-29-18-32-15-28-5h-2q-12 0-27 5t-32 15-30 18-30 22-23 17q-51 35-147 101t-114 80q-35 23-65 64t-31 77q0 43 23 72t66 29h822q36 0 63-26t26-63z" horiz-adv-x="1000" />
</font>
</defs>
</svg>
